<?xml version="1.0" standalone="no"?>
<!DOCTYPE svg PUBLIC "-//W3C//DTD SVG 20010904//EN"
 "http://www.w3.org/TR/2001/REC-SVG-20010904/DTD/svg10.dtd">
<svg version="1.0" xmlns="http://www.w3.org/2000/svg"
 width="700.000000pt" height="700.000000pt" viewBox="0 0 700.000000 700.000000"
 preserveAspectRatio="xMidYMid meet">
<metadata>
Created by potrace 1.14, written by Peter Selinger 2001-2017
</metadata>
<g transform="translate(0.000000,700.000000) scale(0.100000,-0.100000)"
fill="#000000" stroke="none">
<path d="M3195 6673 c-243 -41 -490 -196 -620 -388 -59 -86 -85 -144 -120
-260 -15 -49 -32 -108 -39 -129 -19 -62 -39 -63 -155 -6 -111 55 -141 65 -256
85 -103 19 -150 19 -208 -1 -63 -21 -62 -44 1 -45 111 -1 300 -16 313 -24 3
-2 19 -6 35 -9 45 -8 136 -45 163 -65 l25 -19 -40 3 c-21 2 -52 6 -69 8 -195
35 -305 48 -351 44 -54 -5 -105 -30 -138 -66 -18 -20 -18 -20 5 -16 13 2 47 7
74 10 28 3 73 8 100 12 88 11 267 5 315 -11 l45 -15 -60 -1 c-174 -5 -283 -27
-372 -77 -50 -27 -119 -89 -88 -79 11 4 74 27 140 51 127 45 197 62 283 68 60
5 70 -2 41 -29 -70 -63 -176 -228 -222 -344 -125 -317 -41 -740 198 -997 71
-77 195 -166 287 -207 65 -29 190 -72 236 -81 l32 -7 -6 -113 c-8 -133 4 -196
48 -256 l29 -41 -32 -76 c-51 -123 -86 -235 -100 -317 -15 -94 -7 -241 17
-315 22 -68 75 -171 115 -221 l30 -38 -48 -22 c-44 -20 -65 -22 -243 -22 -107
-1 -269 2 -360 5 -190 8 -260 -3 -376 -57 -92 -42 -136 -72 -206 -141 -264
-259 -338 -662 -175 -953 41 -73 129 -161 192 -192 42 -20 65 -24 145 -24 83
0 102 4 155 28 93 43 152 111 178 202 13 45 19 118 22 272 5 224 25 265 150
308 72 24 180 43 337 61 88 9 219 44 293 78 86 40 182 118 232 191 34 49 67
75 79 62 15 -15 4 -82 -31 -182 -8 -22 -37 -114 -66 -205 -199 -638 -256 -801
-292 -841 -81 -90 -162 -122 -311 -122 -56 1 -227 3 -381 6 -227 5 -290 4
-332 -8 -174 -48 -284 -219 -254 -393 15 -82 24 -160 25 -212 l1 -44 -50 -18
c-27 -10 -69 -25 -93 -34 -44 -17 -102 -59 -102 -75 0 -19 57 -31 165 -34 61
-3 196 -6 300 -9 173 -5 196 -7 259 -31 128 -48 219 -44 316 16 51 31 91 46
150 55 19 2 46 7 60 10 31 5 95 14 235 30 230 26 260 39 274 124 5 30 11 35
36 38 17 2 86 14 155 27 69 13 141 27 160 30 177 30 241 53 310 113 45 38 44
38 169 47 62 5 91 4 87 -3 -3 -6 -2 -21 3 -35 22 -56 99 -56 459 3 73 12 136
20 139 16 3 -3 -11 -24 -31 -47 -74 -87 -44 -102 184 -95 168 6 268 16 400 41
41 8 154 26 250 40 96 15 189 28 205 31 64 10 101 24 118 45 18 20 18 21 0 35
-32 26 -58 32 -154 40 -52 3 -101 8 -109 10 -8 1 -22 3 -31 3 -15 1 -13 13 13
94 58 174 42 292 -52 384 -141 138 -485 194 -750 123 -20 -5 -51 -12 -70 -14
-19 -3 -70 -12 -114 -20 l-78 -15 -47 26 c-105 62 -108 65 -99 103 64 260 200
602 396 998 100 203 156 274 250 325 47 25 201 172 242 233 24 35 83 207 93
273 2 13 27 41 59 66 39 31 63 59 81 97 93 199 61 456 -81 643 -81 107 -156
116 -378 46 l-71 -23 -36 36 c-68 65 -165 114 -259 131 l-38 6 17 27 c10 15
43 56 74 92 123 141 184 312 181 510 -6 344 -9 390 -34 438 -13 26 -44 61 -69
80 -87 66 -100 79 -189 187 -49 60 -92 122 -96 138 -5 23 -10 28 -26 24 -16
-5 -19 -2 -15 14 4 15 0 19 -21 19 -25 1 -22 5 37 60 76 70 158 115 335 186
70 28 123 55 117 59 -37 22 -75 23 -138 4 -98 -31 -186 -92 -316 -221 -38 -38
-72 -68 -77 -68 -4 0 -18 8 -31 19 l-23 19 21 43 c18 38 33 72 38 89 1 3 9 23
19 45 61 137 85 255 64 316 -15 43 -101 115 -166 139 -122 46 -225 36 -507
-53 -71 -22 -137 -42 -146 -43 -10 -2 -22 11 -33 36 -23 52 -79 97 -145 116
-52 16 -144 24 -186 17z m951 -4160 c-8 -16 -36 -66 -63 -113 -27 -47 -57
-101 -66 -120 -10 -19 -26 -48 -36 -65 -10 -16 -48 -88 -86 -160 -99 -190
-175 -320 -236 -405 -147 -205 -201 -265 -221 -245 -7 7 52 286 86 410 13 50
32 117 41 150 9 33 32 112 52 175 19 63 46 153 59 200 43 146 48 150 189 164
61 6 100 11 190 26 28 4 62 8 78 9 27 1 27 0 13 -26z m-665 -1320 c13 -16 12
-17 -3 -4 -10 7 -18 15 -18 17 0 8 8 3 21 -13z m1269 -499 c0 -10 -36 16 -60
42 -23 26 -22 25 18 -5 23 -18 42 -35 42 -37z"/>
<path d="M4680 6054 c-108 -20 -240 -74 -295 -119 -19 -16 -19 -16 15 -11 19
4 44 8 55 10 342 69 434 87 455 92 l25 6 -28 15 c-37 19 -146 23 -227 7z"/>
<path d="M4535 5915 c-5 -1 -36 -8 -67 -15 -32 -6 -58 -15 -58 -19 0 -4 28 -9
63 -10 104 -3 240 -11 277 -17 19 -3 46 -7 60 -9 14 -2 58 -11 98 -20 40 -9
76 -14 79 -11 10 10 -39 56 -82 78 -34 18 -62 21 -200 24 -88 1 -164 1 -170
-1z"/>
</g>
</svg>
